<?xml version="1.0" standalone="no"?>
<!DOCTYPE svg PUBLIC "-//W3C//DTD SVG 20010904//EN"
 "http://www.w3.org/TR/2001/REC-SVG-20010904/DTD/svg10.dtd">
<svg version="1.0" xmlns="http://www.w3.org/2000/svg"
 width="512.000000pt" height="512.000000pt" viewBox="0 0 512.000000 512.000000"
 preserveAspectRatio="xMidYMid meet">

<g transform="translate(0.000000,512.000000) scale(0.100000,-0.100000)"
fill="#000000" stroke="none">
<path d="M1 4238 c0 -691 3 -875 12 -846 20 62 70 123 123 149 62 31 170 33
224 5 19 -10 349 -331 733 -714 l697 -697 1473 1471 c1356 1355 1476 1473
1521 1488 86 28 167 16 237 -36 35 -26 78 -94 89 -141 5 -21 8 9 9 86 l1 117
-2560 0 -2560 0 1 -882z"/>
<path d="M5110 4810 c0 -12 -9 -40 -21 -63 -14 -29 -504 -526 -1582 -1604
-1692 -1692 -1601 -1607 -1712 -1607 -109 0 -67 -37 -938 833 -445 443 -816
820 -824 836 -9 17 -20 44 -24 60 -4 17 -7 -711 -8 -1617 l-1 -1648 2560 0
2560 0 0 2415 c0 1328 -2 2415 -5 2415 -3 0 -5 -9 -5 -20z"/>
</g>
</svg>
